<svg width="185" height="68" viewBox="0 0 185 68" fill="none" xmlns="http://www.w3.org/2000/svg">
<path d="M8 19C8 13.4772 12.4772 9 18 9H49C54.5228 9 59 13.4772 59 19V50C59 55.5228 54.5228 60 49 60H18C12.4772 60 8 55.5228 8 50V19Z" fill="white"/>
<rect x="10.0718" width="58" height="58" rx="10" transform="rotate(10 10.0718 0)" fill="#D9D9D9" fill-opacity="0.43"/>
<path d="M27.7102 45H21.3182L32.142 23.1818H40.2386L43.8182 45H37.4261L35.2955 29.1903H35.125L27.7102 45ZM27.9659 36.392H39.983L39.2159 40.8239H27.1989L27.9659 36.392Z" fill="black"/>
<path d="M78.8068 31H74.5455L81.7614 16.4545H87.1591L89.5455 31H85.2841L83.8636 20.4602H83.75L78.8068 31ZM78.9773 25.2614H86.9886L86.4773 28.2159H78.4659L78.9773 25.2614ZM101.738 23.642H98.2156C98.2345 23.4148 98.1942 23.2206 98.0948 23.0597C97.9954 22.8987 97.8557 22.7756 97.6758 22.6903C97.5006 22.6051 97.3017 22.5625 97.0792 22.5625C96.6909 22.5625 96.3382 22.6501 96.021 22.8253C95.7037 22.9957 95.5262 23.2206 95.4883 23.5C95.4646 23.6089 95.5001 23.7107 95.5948 23.8054C95.6895 23.9001 95.9381 23.9877 96.3406 24.0682L98.4996 24.4659C99.5792 24.6648 100.365 25.027 100.858 25.5526C101.355 26.0734 101.535 26.7623 101.397 27.6193C101.27 28.3627 100.943 29.0019 100.417 29.5369C99.8917 30.072 99.2241 30.4839 98.4144 30.7727C97.6095 31.0568 96.7193 31.1989 95.744 31.1989C94.0252 31.1989 92.7373 30.8556 91.8803 30.169C91.0281 29.4825 90.6398 28.5852 90.7156 27.4773H94.5224C94.5318 27.8324 94.6502 28.0999 94.8775 28.2798C95.1095 28.455 95.4173 28.5473 95.8008 28.5568C96.2174 28.571 96.582 28.4882 96.8945 28.3082C97.207 28.1236 97.3822 27.8939 97.4201 27.6193C97.4343 27.4631 97.3656 27.3447 97.2141 27.2642C97.0674 27.1837 96.7856 27.1032 96.369 27.0227L94.494 26.6818C93.4144 26.4877 92.6284 26.0994 92.136 25.517C91.6436 24.9299 91.4731 24.1818 91.6246 23.2727C91.7478 22.5483 92.0413 21.9399 92.5053 21.4474C92.9741 20.955 93.5896 20.5833 94.3519 20.3324C95.1142 20.0767 95.9949 19.9489 96.994 19.9489C98.6275 19.9489 99.8633 20.2779 100.701 20.9361C101.544 21.5895 101.89 22.4915 101.738 23.642ZM107.53 31.1989C106.365 31.1989 105.4 30.9763 104.632 30.5312C103.865 30.0814 103.326 29.4375 103.013 28.5994C102.701 27.7566 102.644 26.7481 102.843 25.5739C103.032 24.447 103.423 23.4621 104.015 22.6193C104.611 21.7765 105.362 21.1207 106.266 20.652C107.175 20.1832 108.193 19.9489 109.32 19.9489C110.144 19.9489 110.866 20.0767 111.486 20.3324C112.111 20.5881 112.62 20.9598 113.013 21.4474C113.406 21.9351 113.671 22.5246 113.809 23.2159C113.951 23.9025 113.951 24.679 113.809 25.5455L113.667 26.4545H103.922L104.263 24.2955H110.4C110.447 23.983 110.416 23.7083 110.307 23.4716C110.203 23.2301 110.035 23.0431 109.803 22.9105C109.576 22.7732 109.301 22.7045 108.979 22.7045C108.657 22.7045 108.354 22.7732 108.07 22.9105C107.791 23.0478 107.551 23.2396 107.353 23.4858C107.158 23.732 107.028 24.0208 106.962 24.3523L106.536 26.625C106.479 26.9754 106.5 27.2879 106.6 27.5625C106.699 27.8371 106.872 28.0526 107.118 28.2088C107.364 28.3651 107.682 28.4432 108.07 28.4432C108.335 28.4432 108.586 28.4077 108.823 28.3366C109.064 28.2609 109.277 28.152 109.462 28.0099C109.651 27.8632 109.803 27.6856 109.917 27.4773H113.496C113.24 28.2348 112.836 28.893 112.282 29.4517C111.732 30.0057 111.055 30.4366 110.25 30.7443C109.45 31.0473 108.543 31.1989 107.53 31.1989ZM120.835 16.4545L118.42 31H114.499L116.914 16.4545H120.835ZM80.7102 55H75.0284L77.4432 40.4545H82.8977C84.3939 40.4545 85.6439 40.7552 86.6477 41.3565C87.6515 41.9579 88.3641 42.8172 88.7855 43.9347C89.2069 45.0521 89.2898 46.3826 89.0341 47.9261C88.7879 49.4129 88.2884 50.6842 87.5355 51.7401C86.7874 52.7959 85.831 53.6032 84.6662 54.1619C83.5062 54.7206 82.1875 55 80.7102 55ZM79.5312 51.6477H80.9659C81.6856 51.6477 82.3272 51.5223 82.8906 51.2713C83.4588 51.0156 83.9323 50.5895 84.3111 49.9929C84.6946 49.3916 84.9716 48.5701 85.142 47.5284C85.303 46.5436 85.2983 45.7836 85.1278 45.2486C84.9574 44.7088 84.633 44.3348 84.1548 44.1264C83.6766 43.9134 83.0587 43.8068 82.3011 43.8068H80.8381L79.5312 51.6477ZM89.8952 55L90.2362 52.8409L95.9464 47.1307L95.9748 47.0739H91.3725L91.8839 44.0909H101.117L100.748 46.4773L95.4918 51.9602L95.4634 52.017H99.9805L99.4975 55H89.8952ZM106.619 48.8636L105.597 55H101.676L104.091 40.4545H107.869L106.932 46.1648H107.045C107.401 45.4687 107.898 44.9266 108.537 44.5384C109.176 44.1454 109.901 43.9489 110.71 43.9489C111.477 43.9489 112.116 44.1241 112.628 44.4744C113.139 44.8248 113.501 45.3078 113.714 45.9233C113.928 46.5388 113.968 47.2443 113.835 48.0398L112.67 55H108.75L109.773 48.8636C109.858 48.3239 109.789 47.9001 109.567 47.5923C109.349 47.2846 108.991 47.1307 108.494 47.1307C108.172 47.1307 107.879 47.2017 107.614 47.3438C107.353 47.4811 107.135 47.6799 106.96 47.9403C106.79 48.196 106.676 48.5038 106.619 48.8636ZM122.447 50.2273L123.469 44.0909H127.39L125.572 55H121.85L122.191 52.9261H122.077C121.741 53.6222 121.239 54.1667 120.572 54.5597C119.909 54.9479 119.17 55.142 118.356 55.142C117.594 55.142 116.957 54.9669 116.445 54.6165C115.934 54.2661 115.572 53.7831 115.359 53.1676C115.146 52.5521 115.103 51.8466 115.231 51.0511L116.396 44.0909H120.316L119.293 50.2273C119.213 50.767 119.281 51.1908 119.499 51.4986C119.722 51.8063 120.079 51.9602 120.572 51.9602C120.898 51.9602 121.192 51.8916 121.452 51.7543C121.718 51.6122 121.935 51.4134 122.106 51.1577C122.281 50.8973 122.395 50.5871 122.447 50.2273ZM127.566 55L129.384 44.0909H133.191L132.85 46.1648H132.963C133.29 45.3977 133.7 44.8366 134.192 44.4815C134.685 44.1264 135.222 43.9489 135.804 43.9489C135.975 43.9489 136.138 43.9631 136.294 43.9915C136.455 44.0152 136.614 44.0483 136.77 44.0909L136.202 47.4432C136.017 47.3722 135.788 47.3224 135.513 47.294C135.239 47.2609 134.995 47.2443 134.782 47.2443C134.403 47.2443 134.048 47.3319 133.716 47.5071C133.39 47.6776 133.11 47.919 132.878 48.2315C132.651 48.5393 132.499 48.9015 132.424 49.3182L131.486 55H127.566ZM138.741 55.1705C138.05 55.1705 137.456 55.0568 136.958 54.8295C136.466 54.5975 136.106 54.2472 135.879 53.7784C135.656 53.3049 135.607 52.7083 135.73 51.9886C135.829 51.392 136.016 50.883 136.291 50.4616C136.565 50.0402 136.906 49.6946 137.314 49.4247C137.721 49.1548 138.178 48.9489 138.684 48.8068C139.196 48.66 139.735 48.5653 140.304 48.5227C140.919 48.4754 141.419 48.4162 141.802 48.3452C142.186 48.2741 142.472 48.1771 142.662 48.054C142.851 47.9309 142.965 47.7652 143.002 47.5568V47.5284C143.045 47.2443 142.969 47.0265 142.775 46.875C142.586 46.7235 142.321 46.6477 141.98 46.6477C141.61 46.6477 141.291 46.7282 141.021 46.8892C140.756 47.0502 140.574 47.3011 140.474 47.642H136.866C137.018 46.9792 137.328 46.3684 137.797 45.8097C138.27 45.2462 138.897 44.7964 139.679 44.4602C140.465 44.1193 141.402 43.9489 142.491 43.9489C143.268 43.9489 143.949 44.0412 144.537 44.2259C145.124 44.4058 145.609 44.6591 145.993 44.9858C146.381 45.3078 146.653 45.6866 146.809 46.1222C146.97 46.553 147.008 47.0218 146.923 47.5284L145.673 55H142.008L142.264 53.4659H142.179C141.895 53.8731 141.575 54.2022 141.22 54.4531C140.869 54.7041 140.486 54.8864 140.069 55C139.657 55.1136 139.215 55.1705 138.741 55.1705ZM140.446 52.6989C140.739 52.6989 141.028 52.6373 141.312 52.5142C141.596 52.3911 141.84 52.2135 142.044 51.9815C142.247 51.7495 142.377 51.4678 142.434 51.1364L142.576 50.2273C142.472 50.2699 142.356 50.3101 142.228 50.348C142.105 50.3812 141.975 50.4143 141.838 50.4474C141.705 50.4806 141.563 50.5114 141.412 50.5398C141.265 50.5682 141.113 50.5966 140.957 50.625C140.645 50.6723 140.382 50.7505 140.169 50.8594C139.956 50.9635 139.79 51.0938 139.672 51.25C139.553 51.4015 139.48 51.572 139.451 51.7614C139.409 52.0597 139.477 52.2917 139.657 52.4574C139.842 52.6184 140.105 52.6989 140.446 52.6989ZM152.745 55.1989C151.58 55.1989 150.614 54.9763 149.847 54.5312C149.08 54.0814 148.54 53.4375 148.228 52.5994C147.915 51.7566 147.859 50.7481 148.058 49.5739C148.247 48.447 148.638 47.4621 149.229 46.6193C149.826 45.7765 150.576 45.1207 151.481 44.652C152.39 44.1832 153.408 43.9489 154.535 43.9489C155.359 43.9489 156.081 44.0767 156.701 44.3324C157.326 44.5881 157.835 44.9598 158.228 45.4474C158.621 45.9351 158.886 46.5246 159.023 47.2159C159.165 47.9025 159.165 48.679 159.023 49.5455L158.881 50.4545H149.137L149.478 48.2955H155.614C155.662 47.983 155.631 47.7083 155.522 47.4716C155.418 47.2301 155.25 47.0431 155.018 46.9105C154.79 46.7732 154.516 46.7045 154.194 46.7045C153.872 46.7045 153.569 46.7732 153.285 46.9105C153.005 47.0478 152.766 47.2396 152.567 47.4858C152.373 47.732 152.243 48.0208 152.177 48.3523L151.751 50.625C151.694 50.9754 151.715 51.2879 151.815 51.5625C151.914 51.8371 152.087 52.0526 152.333 52.2088C152.579 52.3651 152.897 52.4432 153.285 52.4432C153.55 52.4432 153.801 52.4077 154.038 52.3366C154.279 52.2609 154.492 52.152 154.677 52.0099C154.866 51.8632 155.018 51.6856 155.131 51.4773H158.711C158.455 52.2348 158.05 52.893 157.496 53.4517C156.947 54.0057 156.27 54.4366 155.465 54.7443C154.665 55.0473 153.758 55.1989 152.745 55.1989ZM172.253 44.0909L166.77 55H162.225L160.378 44.0909H164.355L164.924 51.3068H165.037L167.992 44.0909H172.253ZM174.288 55.1705C173.597 55.1705 173.002 55.0568 172.505 54.8295C172.013 54.5975 171.653 54.2472 171.426 53.7784C171.203 53.3049 171.154 52.7083 171.277 51.9886C171.376 51.392 171.563 50.883 171.838 50.4616C172.112 50.0402 172.453 49.6946 172.86 49.4247C173.268 49.1548 173.725 48.9489 174.231 48.8068C174.743 48.66 175.282 48.5653 175.85 48.5227C176.466 48.4754 176.966 48.4162 177.349 48.3452C177.733 48.2741 178.019 48.1771 178.208 48.054C178.398 47.9309 178.511 47.7652 178.549 47.5568V47.5284C178.592 47.2443 178.516 47.0265 178.322 46.875C178.133 46.7235 177.868 46.6477 177.527 46.6477C177.157 46.6477 176.838 46.7282 176.568 46.8892C176.303 47.0502 176.12 47.3011 176.021 47.642H172.413C172.565 46.9792 172.875 46.3684 173.343 45.8097C173.817 45.2462 174.444 44.7964 175.225 44.4602C176.011 44.1193 176.949 43.9489 178.038 43.9489C178.815 43.9489 179.496 44.0412 180.083 44.2259C180.671 44.4058 181.156 44.6591 181.539 44.9858C181.928 45.3078 182.2 45.6866 182.356 46.1222C182.517 46.553 182.555 47.0218 182.47 47.5284L181.22 55H177.555L177.811 53.4659H177.725C177.441 53.8731 177.122 54.2022 176.767 54.4531C176.416 54.7041 176.033 54.8864 175.616 55C175.204 55.1136 174.761 55.1705 174.288 55.1705ZM175.993 52.6989C176.286 52.6989 176.575 52.6373 176.859 52.5142C177.143 52.3911 177.387 52.2135 177.591 51.9815C177.794 51.7495 177.924 51.4678 177.981 51.1364L178.123 50.2273C178.019 50.2699 177.903 50.3101 177.775 50.348C177.652 50.3812 177.522 50.4143 177.385 50.4474C177.252 50.4806 177.11 50.5114 176.958 50.5398C176.812 50.5682 176.66 50.5966 176.504 50.625C176.191 50.6723 175.929 50.7505 175.716 50.8594C175.502 50.9635 175.337 51.0938 175.218 51.25C175.1 51.4015 175.027 51.572 174.998 51.7614C174.956 52.0597 175.024 52.2917 175.204 52.4574C175.389 52.6184 175.652 52.6989 175.993 52.6989Z" fill="white"/>
</svg>
