<svg width="102" height="28" viewBox="0 0 102 28" fill="none" xmlns="http://www.w3.org/2000/svg">
<path d="M1.54545 8.36364H2.77273L6.99432 18.5H7.09659L11.3182 8.36364H12.5455V20H11.5455V10.608H11.4545L7.52841 20H6.5625L2.63636 10.608H2.54545V20H1.54545V8.36364ZM20.1392 20V8.36364H26.8892V9.31818H21.2017V13.6989H26.5312V14.6534H21.2017V19.0455H27.0028V20H20.1392ZM43.2017 8.36364V20H42.1676L35.2926 10.2557H35.2017V20H34.1392V8.36364H35.1676L42.0653 18.1193H42.1562V8.36364H43.2017ZM58.5511 8.36364H59.6136V16.0682C59.6136 16.8598 59.428 17.5682 59.0568 18.1932C58.6856 18.8144 58.1686 19.3049 57.5057 19.6648C56.8466 20.0208 56.0795 20.1989 55.2045 20.1989C54.3333 20.1989 53.5663 20.0189 52.9034 19.6591C52.2405 19.2992 51.7235 18.8087 51.3523 18.1875C50.9811 17.5663 50.7955 16.8598 50.7955 16.0682V8.36364H51.858V15.9943C51.858 16.6117 51.9962 17.1629 52.2727 17.6477C52.5492 18.1288 52.9375 18.5076 53.4375 18.7841C53.9413 19.0606 54.5303 19.1989 55.2045 19.1989C55.8788 19.1989 56.4678 19.0606 56.9716 18.7841C57.4754 18.5076 57.8636 18.1288 58.1364 17.6477C58.4129 17.1629 58.5511 16.6117 58.5511 15.9943V8.36364Z" fill="white"/>
<path fill-rule="evenodd" clip-rule="evenodd" d="M88.5 3H71V1H88.5H94.75H101V3H94.75H88.5ZM88.5 27H71V25H88.5H94.75H101V27H94.75H88.5ZM71 15H88.5H94.75H101V13H94.75H88.5H71V15Z" fill="white"/>
<path d="M71 3H70.5V3.5H71V3ZM71 1V0.5H70.5V1H71ZM101 1H101.5V0.5H101V1ZM101 3V3.5H101.5V3H101ZM71 27H70.5V27.5H71V27ZM71 25V24.5H70.5V25H71ZM101 25H101.5V24.5H101V25ZM101 27V27.5H101.5V27H101ZM71 15H70.5V15.5H71V15ZM101 15V15.5H101.5V15H101ZM101 13H101.5V12.5H101V13ZM71 13V12.5H70.5V13H71ZM71 3.5H88.5V2.5H71V3.5ZM70.5 1V3H71.5V1H70.5ZM88.5 0.5H71V1.5H88.5V0.5ZM94.75 0.5H88.5V1.5H94.75V0.5ZM101 0.5H94.75V1.5H101V0.5ZM101.5 3V1H100.5V3H101.5ZM94.75 3.5H101V2.5H94.75V3.5ZM88.5 3.5H94.75V2.5H88.5V3.5ZM71 27.5H88.5V26.5H71V27.5ZM70.5 25V27H71.5V25H70.5ZM88.5 24.5H71V25.5H88.5V24.5ZM94.75 24.5H88.5V25.5H94.75V24.5ZM101 24.5H94.75V25.5H101V24.5ZM101.5 27V25H100.5V27H101.5ZM94.75 27.5H101V26.5H94.75V27.5ZM88.5 27.5H94.75V26.5H88.5V27.5ZM88.5 14.5H71V15.5H88.5V14.5ZM94.75 14.5H88.5V15.5H94.75V14.5ZM101 14.5H94.75V15.5H101V14.5ZM100.5 13V15H101.5V13H100.5ZM94.75 13.5H101V12.5H94.75V13.5ZM88.5 13.5H94.75V12.5H88.5V13.5ZM71 13.5H88.5V12.5H71V13.5ZM71.5 15V13H70.5V15H71.5Z" fill="black"/>
</svg>
